#!OML:ASF H:\ManfredETheater\Project 1\Capture day 1\Session 1\subject.ASF
:FULLY-SPECIFIED
:DEGREES
106
root -4.1505 15.3504 17.4817 13.4322 -8.5754 -0.298384
lowerback 15.897 -0.109204 -0.954078
upperback 0.340147 -0.100546 2.52597
thorax -8.56946 0.0466488 3.28676
lowerneck -17.8084 -0.911394 -0.790241
upperneck 9.95309 -0.620852 -2.93085
head 5.90421 -0.575567 -0.871931
rclavicle 3.37934e-014 -1.19271e-015
rhumerus -56.1075 -6.15135 -76.2086
rradius 75.8075
rwrist -9.09285
rhand -25.9944 9.47494
rfingers 7.12502
rthumb 0.551188 -20.5041
lclavicle 3.37934e-014 -1.19271e-015
lhumerus -45.7587 -11.7998 102.741
lradius 106.652
lwrist 15.8893
lhand -19.413 -8.85816
lfingers 7.12502
lthumb 6.90644 21.0092
rfemur -45.7238 -12.4813 0.935148
rtibia 91.2387
rfoot -11.9788 -9.23528
rtoes -34.5253
lfemur -28.2022 7.48064 -34.5131
ltibia 70.0329
lfoot -28.3129 -10.9796
ltoes 11.7282
107
root -4.31941 15.4051 18.0315 13.3375 -8.41046 0.118352
lowerback 15.5559 -0.471974 -1.37215
upperback 0.264437 -0.658422 2.49182
thorax -8.41936 -0.206903 3.609
lowerneck -18.0085 -0.563848 -0.568529
upperneck 10.2335 -0.152042 -3.23805
head 6.03238 -0.369651 -0.961541
rclavicle -4.73108e-014 -7.55382e-015
rhumerus -56.9156 -5.63671 -76.0923
rradius 76.9376
rwrist -8.67614
rhand -25.6917 9.87039
rfingers 7.12502
rthumb 0.843518 -20.1077
lclavicle -4.73108e-014 -7.55382e-015
lhumerus -45.8687 -12.6354 102.788
lradius 109.667
lwrist 16.7957
lhand -18.8264 -8.87409
lfingers 7.12502
lthumb 7.47272 20.9739
rfemur -47.7198 -11.8919 0.236698
rtibia 87.8434
rfoot -12.3463 -8.67966
rtoes -36.0385
lfemur -25.8078 7.14362 -33.8536
ltibia 69.1557
lfoot -25.9324 -12.6932
ltoes 8.64495
108
root -4.48553 15.4671 18.5897 13.2339 -8.29188 0.476775
lowerback 15.2042 -0.800001 -1.72315
upperback 0.194014 -1.15374 2.48562
thorax -8.25519 -0.43406 3.90333
lowerneck -18.223 -0.244301 -0.373873
upperneck 10.4857 0.292442 -3.58863
head 6.15653 -0.181141 -1.06227
rclavicle -8.74653e-015 7.95139e-016
rhumerus -57.6804 -5.14087 -75.9448
rradius 78.0977
rwrist -8.35226
rhand -25.3946 10.2127
rfingers 7.12502
rthumb 1.13042 -19.7641
lclavicle -8.74653e-015 7.95139e-016
lhumerus -46.0635 -13.3097 102.782
lradius 112.537
lwrist 17.737
lhand -18.1938 -8.94713
lfingers 7.12502
lthumb 8.08328 20.8783
rfemur -49.3282 -11.1951 -0.418732
rtibia 83.9517
rfoot -12.5344 -7.90621
rtoes -37.5102
lfemur -23.4862 6.63263 -33.1578
ltibia 68.1651
lfoot -22.7554 -14.5329
ltoes 5.67469
109
root -4.64869 15.532 19.1563 13.0803 -8.25727 0.777688
lowerback 14.853 -1.07312 -1.9974
upperback 0.150622 -1.55999 2.49456
thorax -8.06476 -0.623133 4.14511
lowerneck -18.4422 0.0376094 -0.221093
upperneck 10.7034 0.699374 -3.9565
head 6.27255 -0.0147992 -1.16482
rclavicle -5.1684e-015 2.18663e-014
rhumerus -58.4044 -4.71455 -75.76
rradius 79.2723
rwrist -8.19309
rhand -25.1251 10.4717
rfingers 7.12502
rthumb 1.39072 -19.5035
lclavicle -5.1684e-015 2.18663e-014
lhumerus -46.3126 -13.8314 102.734
lradius 115.175
lwrist 18.4894
lhand -17.5785 -9.09349
lfingers 7.12502
lthumb 8.67713 20.7082
rfemur -50.5315 -10.3585 -1.06743
rtibia 79.6456
rfoot -12.5135 -6.85462
rtoes -39.1794
lfemur -21.2108 5.97414 -32.4572
ltibia 67.0748
lfoot -18.7444 -16.4252
ltoes 2.9209
110
root -4.80871 15.5948 19.7296 12.8736 -8.29774 1.02588
lowerback 14.499 -1.29269 -2.17768
upperback 0.135785 -1.87742 2.50898
thorax -7.8483 -0.774928 4.31529
lowerneck -18.6578 0.277643 -0.112628
upperneck 10.8909 1.06109 -4.32353
head 6.37962 0.127185 -1.264
rclavicle 4.92986e-014 2.5842e-014
rhumerus -59.0841 -4.37685 -75.5381
rradius 80.4401
rwrist -8.21192
rhand -24.8777 10.6516
rfingers 7.12502
rthumb 1.62968 -19.3219
lclavicle 4.92986e-014 2.5842e-014
lhumerus -46.5972 -14.2048 102.645
lradius 117.498
lwrist 18.8718
lhand -17.0684 -9.31536
lfingers 7.12502
lthumb 9.16934 20.4653
rfemur -51.3531 -9.40708 -1.73164
rtibia 75.0231
rfoot -12.2502 -5.48172
rtoes -41.1311
lfemur -18.9956 5.13888 -31.7916
ltibia 65.9103
lfoot -13.9815 -18.1978
ltoes 0.292439
111
root -4.96594 15.6518 20.3084 12.5987 -8.40003 1.22285
lowerback 14.1468 -1.46145 -2.25503
upperback 0.160394 -2.10972 2.52224
thorax -7.59961 -0.891607 4.4036
lowerneck -18.8732 0.47462 -0.051302
upperneck 11.0571 1.37415 -4.66998
head 6.48022 0.244697 -1.35362
rclavicle -1.68967e-014 7.95139e-015
rhumerus -59.694 -4.13883 -75.2856
rradius 81.571
rwrist -8.36459
rhand -24.6481 10.7663
rfingers 7.12502
rthumb 1.85146 -19.2054
lclavicle -1.68967e-014 7.95139e-015
lhumerus -46.8894 -14.4421 102.503
lradius 119.438
lwrist 18.8056
lhand -16.6697 -9.56826
lfingers 7.12502
lthumb 9.55402 20.1951
rfemur -51.8125 -8.36216 -2.40956
rtibia 70.2288
rfoot -11.7139 -3.84015
rtoes -43.3416
lfemur -16.8439 4.11421 -31.1929
ltibia 64.7485
lfoot -8.72889 -19.7163
ltoes -2.28572
112
root -5.12089 15.6993 20.8912 12.2536 -8.54563 1.3789
lowerback 13.8023 -1.58466 -2.23946
upperback 0.225937 -2.26698 2.5301
thorax -7.32131 -0.977131 4.41496
lowerneck -19.1024 0.632416 -0.0266629
upperneck 11.2207 1.64128 -4.99009
head 6.5821 0.339635 -1.43349
rclavicle -4.37326e-015 -7.95139e-016
rhumerus -60.2087 -3.98901 -75.0104
rradius 82.6396
rwrist -8.5826
rhand -24.4323 10.8201
rfingers 7.12502
rthumb 2.05988 -19.1497
lclavicle -4.37326e-015 -7.95139e-016
lhumerus -47.1645 -14.558 102.291
lradius 120.935
lwrist 18.321
lhand -16.4171 -9.83423
lfingers 7.12502
lthumb 9.79772 19.9178
rfemur -51.9496 -7.25706 -3.09689
rtibia 65.3707
rfoot -10.8387 -2.03087
rtoes -45.5818
lfemur -14.7637 2.89112 -30.7041
ltibia 63.6294
lfoot -3.18054 -20.9873
ltoes -4.23315
113
root -5.27983 15.7136 21.4707 11.8427 -8.70857 1.50983
lowerback 13.4831 -1.66858 -2.15033
upperback 0.318563 -2.36176 2.53163
thorax -7.03744 -1.03543 4.36461
lowerneck -19.3201 0.751151 -0.0435831
upperneck 11.3862 1.86193 -5.27167
head 6.68181 0.412977 -1.49904
rclavicle 3.97569e-016 -1.43125e-014
rhumerus -60.6232 -3.90613 -74.7131
rradius 83.6238
rwrist -8.78138
rhand -24.2236 10.8349
rfingers 7.12502
rthumb 2.26142 -19.1328
lclavicle 3.97569e-016 -1.43125e-014
lhumerus -47.4239 -14.5678 102.005
lradius 121.959
lwrist 17.563
lhand -16.3136 -10.0812
lfingers 7.12502
lthumb 9.89757 19.6661
rfemur -51.9306 -6.1396 -3.7864
rtibia 60.6777
rfoot -9.62353 -0.232418
rtoes -47.6688
lfemur -12.8334 1.48567 -30.3514
ltibia 62.7343
lfoot 2.10082 -22.0607
ltoes -5.19966
114
root -5.43356 15.7279 22.054 11.3711 -8.86085 1.64045
lowerback 13.1889 -1.71998 -2.02149
upperback 0.437771 -2.40918 2.5246
thorax -6.74617 -1.07223 4.27345
lowerneck -19.5468 0.835543 -0.0830894
upperneck 11.5704 2.04103 -5.52906
head 6.78824 0.466121 -1.55772
rclavicle 2.36554e-014 2.54444e-014
rhumerus -60.9115 -3.86948 -74.403
rradius 84.5097
rwrist -8.89033
rhand -24.0248 10.8189
rfingers 7.12502
rthumb 2.45341 -19.1467
lclavicle 2.36554e-014 2.54444e-014
lhumerus -47.6453 -14.5001 101.636
lradius 122.496
lwrist 16.7158
lhand -16.3342 -10.2861
lfingers 7.12502
lthumb 9.8777 19.4622
rfemur -51.6156 -5.04733 -4.455
rtibia 56.1726
rfoot -8.17346 1.26219
rtoes -49.4498
lfemur -11.0006 -0.0810988 -30.1996
ltibia 62.0425
lfoot 6.64228 -22.9186
ltoes -5.06873
